# xmcd
#
# Track frame offsets: 
#        150
#        15143
#        31065
#        47367
#
# Disc length: 783 seconds
#
# Revision: 0
# Processed by: cddbd v1.5.2PL0 Copyright (c) Steve Scherf et al.
# Submitted via: ExactAudioCopy v1.1
#
DISCID=18030d04
DTITLE=Paula Stewart - Just Jammin'
DYEAR=2018
DGENRE=Blues
TTITLE0=Wal Mart Blues
TTITLE1=Ballad Of Mingo County
TTITLE2=Ladies Man
TTITLE3=Second Fiddle
EXTD=
EXTT0=
EXTT1=
EXTT2=
EXTT3=
PLAYORDER=
